Coordinates
version=1
nRows=12
nColumns=42
inDegrees=yes

Units are S.I. units (second, meters, Newtons, ...)
If the header above contains a line with 'inDegrees', this indicates whether rotational values are in degrees (yes) or radians (no).

endheader
time	pelvis_tilt	pelvis_list	pelvis_rotation	pelvis_tx	pelvis_ty	pelvis_tz	hip_flexion_r	hip_adduction_r	hip_rotation_r	knee_angle_r	knee_adduction_r	knee_angle_r_beta	ankle_angle_r	subtalar_angle_r	mtp_angle_r	hip_flexion_l	hip_adduction_l	hip_rotation_l	knee_angle_l	knee_adduction_l	knee_angle_l_beta	ankle_angle_l	subtalar_angle_l	mtp_angle_l	lumbar_extension	lumbar_bending	lumbar_rotation	arm_flex_r	arm_add_r	arm_rot_r	elbow_flex_r	pro_sup_r	wrist_flex_r	wrist_dev_r	arm_flex_l	arm_add_l	arm_rot_l	elbow_flex_l	pro_sup_l	wrist_flex_l	wrist_dev_l
      1.34000000	    -26.25422088	     -0.00154339	      1.04527886	     -0.99783867	      1.44042584	     -0.60159168	     60.06917091	     -3.42946799	    -19.67503208	     70.93004199	    -17.78072173	      1.23796277	     22.91527389	      0.00000000	      0.00000000	     56.69954839	      1.38165872	    -15.81341843	     66.41615216	    -17.22533140	      1.15918053	     29.19070639	      0.00000000	      0.00000000	    -11.08679977	     -3.42512710	      0.90584817	     26.99076200	    -14.27842036	      5.87539871	     74.16496395	     99.40350586	      0.00000000	      0.00000000	     37.33113517	    -11.62577848	     19.29931939	     71.09765214	     90.90713300	      0.00000000	      0.00000000
      1.35000000	    -25.79104795	      0.10316685	      1.07954627	     -0.99303410	      1.43793829	     -0.60252980	     59.68868355	     -3.67898673	    -19.66052768	     71.72907713	    -17.87833918	      1.25190857	     23.05547410	      0.00000000	      0.00000000	     56.42720644	      1.57344201	    -15.72945353	     67.43878579	    -17.26716305	      1.17702886	     29.18269264	      0.00000000	      0.00000000	    -10.78630039	     -3.39025683	      0.69544067	     29.45528284	    -14.67494243	      6.92880460	     76.30917340	     99.79623515	      0.00000000	      0.00000000	     39.86783887	    -11.78445859	     20.82617290	     73.27876619	     90.92584326	      0.00000000	      0.00000000
      1.36000000	    -25.24371173	      0.07481083	      0.69698682	     -0.98755152	      1.43644498	     -0.60186917	     59.06179706	     -3.19953830	    -19.41619697	     72.20496786	    -17.99479272	      1.26021443	     23.19665181	      0.00000000	      0.00000000	     55.84078986	      1.24803010	    -15.80190781	     68.16323408	    -17.31343606	      1.18967286	     29.19313739	      0.00000000	      0.00000000	    -10.48430615	     -3.39036569	      0.90725334	     31.82848303	    -15.01116834	      7.96491621	     78.57052853	    100.11917694	      0.00000000	      0.00000000	     42.32684301	    -12.14969537	     22.36685598	     75.76978434	     91.00972702	      0.00000000	      0.00000000
      1.37000000	    -24.65570563	      0.08414814	      0.34412079	     -0.98164489	      1.43615611	     -0.60185869	     58.25698142	     -2.93641963	    -19.22710499	     72.45787077	    -17.99310365	      1.26462841	     23.26927892	      0.00000000	      0.00000000	     54.97612815	      1.09540367	    -15.90204234	     68.48979375	    -17.40945899	      1.19537241	     29.22546190	      0.00000000	      0.00000000	    -10.22711030	     -3.38392708	      1.15605271	     34.10050321	    -15.49112669	      9.00559836	     81.07960008	    100.43606530	      0.00000000	      0.00000000	     44.72177993	    -12.30613490	     23.70634148	     78.36754005	     91.16066523	      0.00000000	      0.00000000
      1.38000000	    -23.80413438	      0.08092349	     -0.09132816	     -0.97481542	      1.43735308	     -0.60115167	     56.95856426	     -2.44098113	    -18.91497032	     72.43926561	    -17.98437769	      1.26430369	     23.37512639	      0.00000000	      0.00000000	     53.54497696	      0.83276108	    -16.14052031	     68.42324222	    -17.52519804	      1.19421086	     29.26384900	      0.00000000	      0.00000000	    -10.18953862	     -3.44476564	      1.54435655	     36.19866700	    -15.81083873	      9.71081024	     83.70507834	    100.87474283	      0.00000000	      0.00000000	     47.12084957	    -12.43557436	     25.03538105	     80.97929732	     91.27235927	      0.00000000	      0.00000000
      1.39000000	    -23.57477811	      0.07605775	     -0.43163290	     -0.96777345	      1.43873101	     -0.60064763	     56.17642565	     -2.01459879	    -18.72331555	     72.16566207	    -18.02192229	      1.25952841	     23.43508546	      0.00000000	      0.00000000	     52.63391655	      0.68401585	    -16.19141707	     68.11008984	    -17.50036029	      1.18874532	     29.28992894	      0.00000000	      0.00000000	     -9.33324862	     -3.48750701	      1.79162931	     38.10769753	    -16.22256062	     10.74799228	     86.34780429	    101.24326577	      0.00000000	      0.00000000	     49.13927567	    -12.47769361	     26.24562061	     83.67798759	     91.74858491	      0.00000000	      0.00000000
      1.40000000	    -23.24818817	      0.05554979	     -0.62962770	     -0.95979196	      1.44166334	     -0.60061423	     55.03113220	     -1.68078162	    -18.46907539	     71.57777118	    -17.99746880	      1.24926778	     23.48325846	      0.00000000	      0.00000000	     51.36481192	      0.74162006	    -16.17440349	     67.35782517	    -17.52316270	      1.17561583	     29.31907745	      0.00000000	      0.00000000	     -8.53276408	     -3.44456926	      1.93351897	     39.76278933	    -16.73320219	     11.75027311	     89.25042674	    101.60191357	      0.00000000	      0.00000000	     50.97066188	    -12.47195488	     27.38627045	     86.41032340	     92.28723743	      0.00000000	      0.00000000
      1.41000000	    -21.98024831	     -0.14134888	     -0.95726857	     -0.95088347	      1.44772478	     -0.59983409	     52.59935061	     -1.06863951	    -18.36430415	     70.47845258	    -17.95328273	      1.23008105	     23.45370378	      0.00000000	      0.00000000	     48.86661217	      0.48791830	    -16.38104916	     66.19537842	    -17.68326783	      1.15532730	     29.33046766	      0.00000000	      0.00000000	     -8.91566110	     -3.39322152	      2.44456612	     41.31036273	    -17.26953839	     12.18860829	     92.44153267	    101.85328599	      0.00000000	      0.00000000	     53.29233503	    -12.28275937	     28.93928486	     88.76342547	     93.19182822	      0.00000000	      0.00000000
      1.42000000	    -21.84364857	     -0.41453262	     -1.28264191	     -0.94156965	      1.45305812	     -0.59864826	     51.27154420	     -0.35782904	    -18.23277661	     69.21053616	    -17.82759836	      1.20795173	     23.25972900	      0.00000000	      0.00000000	     47.47259462	      0.09752546	    -16.30850771	     64.91950664	    -17.56512517	      1.13305914	     29.32340517	      0.00000000	      0.00000000	     -7.78557076	     -3.20737205	      2.75239405	     42.52290030	    -17.63800767	     13.08397943	     95.32987106	    102.14561389	      0.00000000	      0.00000000	     54.89012350	    -12.36675500	     30.41225805	     91.48609715	     93.78461987	      0.00000000	      0.00000000
      1.43000000	    -20.77951442	     -0.64078665	     -1.38736796	     -0.93146892	      1.46198470	     -0.59845928	     48.66682062	      0.10695351	    -18.11855160	     67.40168891	    -17.66105168	      1.17638139	     22.74467153	      0.00000000	      0.00000000	     44.78251960	     -0.00197661	    -16.15843753	     62.98065519	    -17.38155532	      1.09921980	     29.28640052	      0.00000000	      0.00000000	     -7.79587994	     -3.05311883	      3.02700369	     43.64940186	    -18.27765490	     13.72816732	     98.34200239	    102.15410957	      0.00000000	      0.00000000	     56.59110194	    -11.94067344	     31.76083041	     93.56788401	     94.83168638	      0.00000000	      0.00000000
      1.44000000	    -19.98097618	     -0.85255140	     -1.35730220	     -0.92052300	      1.47147001	     -0.59786169	     46.21660369	      0.45030176	    -17.99631898	     65.43681087	    -17.33415226	      1.14208780	     22.00634216	      0.00000000	      0.00000000	     42.24309218	     -0.08671743	    -15.82492120	     60.83733122	    -17.02089688	      1.06181174	     29.20800769	      0.00000000	      0.00000000	     -7.39635747	     -2.94948900	      3.03774990	     44.54419696	    -18.72646202	     14.53453359	    101.11983345	    102.15479633	      0.00000000	      0.00000000	     58.10632717	    -11.87059548	     33.25501985	     95.67431242	     95.70574567	      0.00000000	      0.00000000
      1.45000000	    -19.26121447	     -1.11163655	     -1.60816045	     -0.90914620	      1.48273745	     -0.59757701	     43.72208473	      0.92222871	    -17.36220238	     63.15032915	    -16.57335799	      1.10218117	     20.77482928	      0.00000000	      0.00000000	     39.59118052	     -0.41424910	    -15.59184926	     58.35160459	    -16.41136955	      1.01842762	     29.05245696	      0.00000000	      0.00000000	     -6.91717219	     -2.72357272	      3.33785663	     45.27933300	    -19.36132494	     15.48542749	    103.84536587	    102.33606956	      0.00000000	      0.00000000	     59.04139758	    -11.48395698	     34.26801162	     97.83867147	     96.34127857	      0.00000000	      0.00000000
